<svg width="12" height="13" fill="none" xmlns="http://www.w3.org/2000/svg"><path d="M7.322 6.5l4.486-4.487A.653.653 0 0012 1.549a.651.651 0 00-.192-.464l-.393-.393A.65.65 0 0010.951.5a.65.65 0 00-.464.192L6 5.178 1.513.692A.65.65 0 001.05.5a.65.65 0 00-.464.192l-.393.393a.657.657 0 000 .928L4.679 6.5.192 10.987A.652.652 0 000 11.45c0 .176.068.34.192.464l.393.393a.65.65 0 00.464.192.65.65 0 00.464-.192L6 7.821l4.487 4.487a.651.651 0 00.464.192.65.65 0 00.464-.192l.393-.393a.652.652 0 00.192-.464.652.652 0 00-.192-.464L7.322 6.5z" fill="#2F80ED" fill-opacity=".5"/></svg>