<svg width="20" height="15" fill="none" xmlns="http://www.w3.org/2000/svg"><g clip-path="url(#clip0)" fill-rule="evenodd" clip-rule="evenodd"><path d="M0 0h28.5v1.154H0V0zm0 2.309h28.5v1.154H0V2.309zm0 2.305h28.5v1.157H0V4.614zm0 2.309h28.5v1.154H0V6.923zM0 9.23h28.5v1.155H0V9.23zm0 2.306h28.5v1.154H0v-1.154zm0 2.309h28.5V15H0v-1.154z" fill="#BD3D44"/><path d="M0 1.154h28.5V2.31H0V1.154zm0 2.309h28.5v1.151H0V3.463zm0 2.306h28.5v1.154H0V5.769zm0 2.308h28.5v1.154H0V8.077zm0 2.309h28.5v1.154H0v-1.154zm0 2.305h28.5v1.155H0V12.69z" fill="#F1F1F1"/><path d="M0 0h11.4v8.077H0V0z" fill="#192F5D"/><path d="M.95.346l.105.319h.334l-.27.196.103.323-.273-.2-.27.197.103-.32L.51.665h.34l.1-.32zm1.9 0l.103.319h.337l-.272.196.102.323-.27-.2-.272.197.103-.32-.27-.196h.334l.106-.32zm1.899 0l.105.319h.332l-.27.196.103.323-.273-.2-.27.197.103-.32-.272-.196h.337l.105-.32zm1.901 0l.103.319h.337l-.273.196.106.323-.273-.2-.272.197.105-.32-.272-.196h.334l.105-.32zm1.899 0l.105.319h.334l-.27.196.103.323-.272-.2-.27.197.103-.32-.27-.196h.334l.103-.32zm1.901 0l.103.319h.337l-.273.196.106.323-.273-.2-.272.197.105-.32-.272-.196h.337l.102-.32zm-8.549.808l.103.32h.337l-.273.196.1.32-.264-.197-.272.196.097-.32-.264-.195h.334l.102-.32zm1.899 0l.105.32h.334l-.272.196.105.32-.272-.197-.273.196.106-.32-.273-.195h.337l.103-.32zm1.901 0l.103.32h.337l-.273.196.103.32-.27-.197-.272.196.102-.32-.27-.195h.335l.105-.32zm1.899 0l.105.32h.334l-.272.196.105.32-.272-.197-.27.196.103-.32-.273-.195h.34l.1-.32zm1.901 0l.103.32h.336l-.272.196.103.32-.27-.197-.272.196.102-.32-.27-.195h.335l.105-.32zM.949 1.96l.106.325h.334l-.27.196.103.32-.273-.2-.27.2.103-.322-.272-.197h.34l.1-.322zm1.902 0l.102.322h.337l-.272.197.102.319-.27-.2-.272.2.103-.322-.27-.197h.334l.106-.319zm1.898 0l.105.322h.332l-.27.197.103.319-.273-.2-.27.2.103-.322-.272-.197h.337l.105-.319zm1.901 0l.103.322h.337l-.273.197.106.319-.273-.2-.272.2.105-.322-.272-.197h.334l.105-.319zm1.899 0l.105.322h.334l-.27.197.103.319-.272-.2-.27.2.103-.322-.27-.197h.334l.103-.319zm1.901 0l.103.322h.337l-.273.197.106.319-.273-.2-.272.2.105-.322-.272-.197h.337l.102-.319zm-8.549.809l.103.319h.337l-.273.196.103.322-.27-.199-.272.197.102-.32-.27-.196h.335l.105-.32zm1.899 0l.105.319h.334l-.272.196.105.322-.272-.199-.273.197.106-.32-.273-.196h.337l.103-.32zm1.901 0l.103.319h.337l-.273.196.103.322-.27-.199-.272.197.102-.32-.27-.196h.335l.105-.32zm1.899 0l.105.319h.334l-.27.196.103.322-.272-.199-.27.197.103-.32-.273-.196h.34l.1-.32zm1.901 0l.103.319h.336l-.272.196.103.322-.27-.199-.272.197.102-.32-.27-.196h.335l.105-.32zm-8.552.808l.106.32h.334l-.27.196.103.322-.273-.2-.27.197.103-.32-.272-.196h.34l.1-.319zm1.902 0l.102.32h.337l-.272.196.102.32-.27-.197-.272.196.103-.32-.27-.196h.334l.106-.319zm1.898 0l.105.32h.332l-.27.196.103.322-.273-.2-.27.197.103-.32-.272-.196h.337l.105-.319zm1.901 0l.103.32h.337l-.273.196.106.322-.273-.2-.272.197.105-.32-.272-.196h.334l.105-.319zm1.899 0l.105.32h.334l-.27.196.103.322-.272-.2-.27.197.103-.32-.27-.196h.334l.103-.319zm1.901 0l.103.32h.337l-.273.196.106.322-.273-.2-.272.197.105-.32-.272-.196h.337l.102-.319zm-8.549.809l.103.32h.337l-.273.195.103.32-.27-.2-.272.2.102-.323-.27-.196h.335l.105-.316zm1.899 0l.105.32h.334l-.272.195.105.32-.272-.2-.273.2.106-.323-.273-.196h.337l.103-.316zm1.901 0l.103.32h.337l-.273.195.103.32-.27-.2-.272.2.102-.323-.27-.196h.335l.105-.316zm1.899 0l.105.32h.334l-.27.195.103.32-.272-.2-.27.2.103-.323-.273-.196h.34l.1-.316zm1.901 0l.103.32h.336l-.272.195.103.32-.27-.2-.272.2.102-.323-.27-.196h.335l.105-.316zM.949 5.19l.106.323h.334l-.27.196.103.316-.273-.196-.27.196.103-.319L.51 5.51h.34l.1-.32zm1.902 0l.102.323h.337l-.272.196.105.316-.272-.196-.273.196.106-.319-.273-.196h.334l.106-.32zm1.898 0l.105.323h.332l-.27.196.103.316-.273-.196-.27.196.103-.319-.272-.196h.337l.105-.32zm1.901 0l.103.323h.337l-.273.196.106.316-.273-.196-.272.196.105-.319-.272-.196h.334l.105-.32zm1.899 0l.105.323h.334l-.27.196.103.316-.272-.196-.27.196.103-.319-.27-.196h.334l.103-.32zm1.901 0l.103.323h.337l-.273.196.106.316-.273-.196-.272.196.105-.319-.272-.196h.337l.102-.32zM1.901 6l.103.32h.337l-.273.196.103.322-.27-.2-.272.197.102-.32-.27-.196h.335L1.9 6zM3.8 6l.105.32h.334l-.272.196.105.322-.272-.2-.273.197.106-.32-.273-.196h.337L3.8 6zm1.9 0l.103.32h.337l-.273.196.103.322-.27-.2-.272.197.102-.32-.27-.196h.335L5.7 6zm1.9 0l.105.32h.334l-.27.196.103.322-.272-.2-.27.197.103-.32-.273-.196h.34L7.6 6zm1.9 0l.103.32h.336l-.272.196.103.322-.27-.2-.272.197.102-.32-.27-.196h.335L9.5 6zm-8.552.809l.106.319h.334l-.27.196.103.32-.273-.197-.27.197.103-.323-.272-.196h.34l.1-.316zm1.902 0l.102.319h.337l-.272.196.105.32-.272-.197-.273.197.106-.323-.273-.196h.334l.106-.316zm1.898 0l.105.319h.332l-.264.196.102.32-.272-.197-.27.197.103-.323-.272-.196h.336l.1-.316zm1.901 0l.103.319h.337l-.273.196.106.32-.273-.197-.272.197.105-.323-.272-.196h.334l.105-.316zm1.899 0l.105.319h.334l-.27.196.103.32-.272-.197-.27.197.103-.323-.27-.196h.334l.103-.316zm1.901 0l.103.319h.337l-.273.196.106.32-.273-.197-.272.197.105-.323-.272-.196h.337l.102-.316z" fill="#F1F1F1"/></g><defs><clipPath id="clip0"><path fill="#fff" d="M0 0h20v15H0z"/></clipPath></defs></svg>