<svg width="20" height="20" fill="none" xmlns="http://www.w3.org/2000/svg"><circle cx="10" cy="10" r="10" fill="#2F80ED" fill-opacity=".1"/><path d="M10.828 12.5H8.953a.3.3 0 00-.218.094.3.3 0 00-.094.218v1.876a.3.3 0 00.094.218.3.3 0 00.218.094h1.875a.3.3 0 00.219-.094.3.3 0 00.094-.219v-1.875a.3.3 0 00-.094-.218.3.3 0 00-.219-.094zm2.462-5.613a3.24 3.24 0 00-.829-.996 4.235 4.235 0 00-1.14-.649A3.502 3.502 0 0010.063 5C8.48 5 7.27 5.693 6.438 7.078a.308.308 0 00.078.414l1.281.977a.374.374 0 00.196.062.304.304 0 00.242-.125c.375-.469.654-.768.836-.898.224-.151.505-.227.844-.227.317 0 .597.084.84.25.241.167.362.36.362.578 0 .245-.065.443-.195.594-.13.151-.349.297-.656.438a3.3 3.3 0 00-1.117.847c-.339.383-.508.79-.508 1.223v.351c0 .1.027.197.082.293.055.097.121.145.2.145h1.874c.084 0 .156-.04.219-.121a.408.408 0 00.094-.254c0-.13.071-.305.215-.523a1.53 1.53 0 01.535-.508c.203-.115.362-.207.476-.278a3.82 3.82 0 00.45-.34 2.27 2.27 0 00.43-.464c.1-.154.192-.353.273-.598a2.5 2.5 0 00.12-.79 2.56 2.56 0 00-.32-1.237z" opacity=".5" fill="#2F80ED"/></svg>