<svg width="15" height="17" fill="none" xmlns="http://www.w3.org/2000/svg"><path d="M14.275 8.588c-.07 1.418-.421 2.537-1.054 3.357-.633.82-1.48 1.23-2.54 1.23-1.096 0-1.8-.491-2.11-1.476-.316.498-.68.87-1.09 1.116-.404.24-.823.36-1.256.36-.832 0-1.462-.34-1.89-1.019-.428-.68-.586-1.62-.475-2.821.088-.967.308-1.828.66-2.584.357-.762.814-1.36 1.37-1.793.563-.434 1.152-.65 1.767-.65.475 0 .9.064 1.275.193.375.123.797.37 1.265.738l-.457 4.87c-.111 1.353.264 2.03 1.125 2.03.662 0 1.198-.329 1.609-.985.41-.656.632-1.511.668-2.566.11-2.28-.314-4.017-1.275-5.212-.955-1.195-2.411-1.793-4.368-1.793-1.178 0-2.224.293-3.138.879-.914.58-1.634 1.42-2.162 2.522-.527 1.102-.823 2.373-.887 3.815-.07 1.453.105 2.716.527 3.788.422 1.066 1.063 1.88 1.925 2.443.867.569 1.913.853 3.137.853a6.68 6.68 0 001.582-.193c.534-.13.976-.296 1.328-.502l.325 1.011c-.364.229-.847.416-1.45.563a7.614 7.614 0 01-1.82.22c-1.465 0-2.724-.332-3.78-.994-1.054-.656-1.845-1.605-2.372-2.847-.522-1.237-.747-2.684-.677-4.342.07-1.611.43-3.059 1.081-4.342.65-1.289 1.532-2.282 2.646-2.98C4.877.775 6.134.424 7.534.424c1.46 0 2.71.328 3.753.984 1.043.656 1.82 1.603 2.33 2.84.509 1.235.729 2.683.658 4.34zm-9.017.747c-.082.832-.006 1.47.228 1.916.24.445.618.668 1.134.668.352 0 .689-.15 1.01-.448.329-.3.599-.727.81-1.284l.008-.079.405-4.42a2.26 2.26 0 00-1.055-.255c-.686 0-1.254.348-1.705 1.046-.446.697-.724 1.649-.835 2.856z" fill="#4F4F4F"/></svg>