<svg width="327" height="173" fill="none" xmlns="http://www.w3.org/2000/svg"><path d="M35.332 62.264c2.356 0 4.301.477 6.247.668C49.26 34.173 76.81 12.58 110.195 12.58c10.344 0 20.482 2.198 29.29 6.306C151.467 4.46 169.901-5 190.895-5c28.471 0 52.537 17.198 61.549 40.893 3.073-.477 5.94-.764 9.218-.764 36.151 0 65.338 27.23 65.338 60.766 0 33.919-29.29 61.149-65.338 61.149-7.579 0-14.543-1.433-21.2-3.535C231.04 165.356 215.884 173 198.781 173c-17.717 0-33.386-8.312-42.91-21.02C146.346 164.688 130.78 173 112.96 173c-19.253 0-35.844-9.554-44.754-23.791-9.114 6.88-20.277 10.797-32.771 10.797C6.35 160.101-17 138.222-17 111.183c0-26.944 23.35-48.92 52.332-48.92z" fill="#fff"/></svg>