<svg width="195" height="101" fill="none" xmlns="http://www.w3.org/2000/svg"><path d="M29.665 38.166c1.335 0 2.438.272 3.541.38 4.354-16.318 19.97-28.57 38.896-28.57 5.863 0 11.61 1.246 16.603 3.577C95.497 5.367 105.947 0 117.848 0c16.138 0 29.781 9.758 34.889 23.203 1.742-.27 3.368-.433 5.225-.433C178.455 22.77 195 38.22 195 57.25c0 19.245-16.603 34.696-37.038 34.696-4.296 0-8.243-.813-12.017-2.006-5.341 6.723-13.933 11.06-23.627 11.06-10.044 0-18.926-4.717-24.325-11.927C92.596 96.283 83.772 101 73.67 101c-10.914 0-20.318-5.421-25.369-13.5-5.167 3.904-11.494 6.127-18.577 6.127C13.236 93.68 0 81.267 0 65.924c0-15.289 13.236-27.758 29.665-27.758z" fill="#fff"/></svg>