<svg width="304" height="177" fill="none" xmlns="http://www.w3.org/2000/svg"><path d="M51.572 66.886c2.32 0 4.238.475 6.156.665 7.57-28.598 34.717-50.07 67.618-50.07 10.193 0 20.185 2.186 28.864 6.271C166.018 9.406 184.184 0 204.873 0c28.057 0 51.774 17.101 60.655 40.663 3.028-.475 5.854-.76 9.083-.76 35.626 0 64.389 27.078 64.389 60.425 0 33.728-28.864 60.806-64.389 60.806-7.468 0-14.331-1.425-20.891-3.516C244.435 169.399 229.499 177 212.645 177c-17.46 0-32.901-8.266-42.287-20.902C160.972 168.734 145.632 177 128.071 177c-18.973 0-35.323-9.501-44.103-23.657-8.982 6.841-19.983 10.736-32.296 10.736C23.01 164.174 0 142.417 0 115.53c0-26.793 23.01-48.644 51.572-48.644z" fill="#fff"/></svg>