<svg width="239" height="125" fill="none" xmlns="http://www.w3.org/2000/svg"><path d="M36.359 47.236c1.636 0 2.988.335 4.34.47 5.336-20.197 24.476-35.36 47.672-35.36 7.186 0 14.23 1.543 20.349 4.428C117.045 6.643 129.853 0 144.439 0c19.78 0 36.501 12.077 42.762 28.717 2.135-.335 4.127-.537 6.404-.537C218.722 28.18 239 47.303 239 70.853c0 23.82-20.349 42.942-45.395 42.942-5.265 0-10.104-1.006-14.729-2.483C172.33 119.632 161.8 125 149.918 125c-12.31 0-23.196-5.837-29.813-14.761C113.488 119.163 102.673 125 90.292 125c-13.377 0-24.903-6.71-31.093-16.707-6.333 4.831-14.088 7.582-22.77 7.582C16.224 115.942 0 100.577 0 81.589c0-18.921 16.223-34.353 36.359-34.353z" fill="#fff"/></svg>