<svg width="253" height="151" fill="none" xmlns="http://www.w3.org/2000/svg"><path d="M38.489 57.06c1.732 0 3.163.406 4.594.568 5.65-24.397 25.91-42.714 50.465-42.714 7.607 0 15.063 1.864 21.541 5.349C123.901 8.024 137.459 0 152.9 0c20.939 0 38.639 14.59 45.267 34.69 2.26-.405 4.369-.648 6.779-.648 26.588 0 48.054 23.1 48.054 51.549 0 28.773-21.542 51.873-48.054 51.873-5.574 0-10.696-1.215-15.591-2.999-6.93 10.051-18.077 16.535-30.656 16.535-13.03 0-24.554-7.052-31.559-17.831C120.135 143.948 108.687 151 95.581 151c-14.16 0-26.362-8.105-32.915-20.182-6.703 5.836-14.913 9.159-24.102 9.159C17.173 140.058 0 121.497 0 98.559c0-22.856 17.173-41.498 38.489-41.498z" fill="#fff"/></svg>