<svg width="184" height="110" fill="none" xmlns="http://www.w3.org/2000/svg"><path d="M27.992 41.567c1.26 0 2.3.296 3.341.414 4.108-17.773 18.844-31.117 36.701-31.117 5.533 0 10.956 1.358 15.667 3.897C90.111 5.845 99.971 0 111.2 0c15.228 0 28.101 10.628 32.921 25.271 1.644-.295 3.178-.472 4.93-.472C168.388 24.799 184 41.626 184 62.35c0 20.96-15.667 37.789-34.949 37.789-4.053 0-7.778-.886-11.339-2.185-5.039 7.321-13.146 12.045-22.294 12.045-9.477 0-17.858-5.137-22.952-12.99C87.37 104.863 79.045 110 69.513 110c-10.298 0-19.172-5.904-23.938-14.702-4.875 4.251-10.846 6.672-17.529 6.672C12.49 102.029 0 88.508 0 71.798c0-16.65 12.49-30.23 27.992-30.23z" fill="#fff"/></svg>