<svg width="141" height="27" fill="none" xmlns="http://www.w3.org/2000/svg"><path d="M9.333 27c-1.978 0-3.774-.309-5.39-.926-1.592-.641-2.906-1.567-3.943-2.779l4.594-5.343c.675.832 1.339 1.45 1.99 1.853.65.403 1.326.605 2.026.605.892 0 1.567-.26 2.025-.783.483-.523.724-1.294.724-2.316V7.836h-8.61v-6.34h17.038v15.317c0 3.395-.892 5.948-2.676 7.658C15.35 26.157 12.758 27 9.333 27zm24.571-.214c-2.195 0-4.173-.427-5.933-1.282-1.736-.879-3.1-2.078-4.088-3.598-.989-1.543-1.483-3.289-1.483-5.236 0-1.947.494-3.68 1.483-5.2.989-1.544 2.352-2.743 4.088-3.598 1.76-.855 3.738-1.282 5.933-1.282 2.218 0 4.196.427 5.932 1.282 1.76.855 3.123 2.054 4.088 3.598.989 1.52 1.483 3.253 1.483 5.2s-.494 3.693-1.483 5.236c-.965 1.52-2.327 2.72-4.088 3.598-1.736.855-3.714 1.282-5.932 1.282zm0-6.269c.94 0 1.712-.332 2.315-.997.603-.689.904-1.639.904-2.85 0-1.21-.301-2.149-.904-2.814s-1.375-.997-2.316-.997c-.94 0-1.712.332-2.315.997s-.904 1.603-.904 2.814.301 2.161.904 2.85c.603.665 1.375.997 2.316.997zM61.17 6.59c1.736 0 3.328.415 4.775 1.246 1.47.808 2.628 1.983 3.472 3.527.869 1.52 1.303 3.289 1.303 5.307 0 2.019-.434 3.8-1.303 5.343-.844 1.544-2.001 2.731-3.472 3.562-1.447.808-3.04 1.211-4.775 1.211-2.436 0-4.245-.653-5.427-1.959v1.603h-7.777V0h8.175v8.264C57.3 7.148 58.975 6.59 61.17 6.59zm-1.954 13.927c.94 0 1.712-.332 2.315-.997.603-.689.905-1.639.905-2.85 0-1.21-.302-2.149-.905-2.814s-1.374-.997-2.315-.997c-.94 0-1.712.332-2.315.997s-.904 1.603-.904 2.814.301 2.161.904 2.85c.603.665 1.375.997 2.315.997z" fill="#fff"/><path d="M83.877 26.786c-2.195 0-4.172-.427-5.933-1.282-1.736-.879-3.099-2.078-4.088-3.598-.988-1.543-1.483-3.289-1.483-5.236 0-1.947.495-3.68 1.483-5.2.99-1.544 2.352-2.743 4.088-3.598 1.76-.855 3.738-1.282 5.933-1.282 2.219 0 4.196.427 5.933 1.282 1.76.855 3.123 2.054 4.087 3.598.989 1.52 1.483 3.253 1.483 5.2s-.494 3.693-1.483 5.236c-.964 1.52-2.327 2.72-4.088 3.598-1.736.855-3.713 1.282-5.932 1.282zm0-6.269c.94 0 1.712-.332 2.315-.997.603-.689.904-1.639.904-2.85 0-1.21-.301-2.149-.904-2.814s-1.375-.997-2.315-.997-1.712.332-2.315.997-.905 1.603-.905 2.814.302 2.161.905 2.85c.603.665 1.374.997 2.315.997zm23.54-.071l-1.302 1.39v4.594h-8.176V0h8.176v12.61l5.679-5.664h9.659l-8.176 8.442 8.827 11.042h-9.876l-4.811-5.984z" fill="#013C8B"/><path d="M130.763 26.786c-1.689 0-3.353-.178-4.993-.534-1.639-.356-2.966-.82-3.979-1.39l2.243-5.307c.917.547 2.002.974 3.256 1.283 1.254.308 2.472.463 3.653.463.941 0 1.592-.071 1.954-.214.386-.166.579-.404.579-.712 0-.309-.242-.523-.724-.642-.458-.118-1.218-.237-2.279-.356-1.616-.19-2.99-.427-4.124-.712a6.752 6.752 0 01-3.002-1.745c-.844-.855-1.266-2.078-1.266-3.67a5.39 5.39 0 011.157-3.383c.772-.998 1.918-1.793 3.437-2.387 1.543-.593 3.388-.89 5.535-.89 1.495 0 2.954.142 4.377.427 1.447.261 2.677.653 3.689 1.176l-2.242 5.307c-1.737-.95-3.642-1.425-5.716-1.425-1.785 0-2.677.309-2.677.926 0 .309.241.535.724.677.482.119 1.242.238 2.279.356 1.615.19 2.978.44 4.087.748a6.509 6.509 0 012.967 1.746c.868.855 1.302 2.078 1.302 3.669 0 1.21-.386 2.315-1.158 3.312-.771.998-1.929 1.793-3.472 2.387-1.544.593-3.413.89-5.607.89z" fill="#013C8B"/></svg>